<svg id="Calque_1" data-name="Calque 1" xmlns="http://www.w3.org/2000/svg" xmlns:xlink="http://www.w3.org/1999/xlink" viewBox="0 0 2747.06 1163.17"><defs><style>.cls-1{fill:url(#Dégradé_sans_nom_22);}.cls-2{fill:url(#Dégradé_sans_nom_17);}.cls-3{fill:url(#Dégradé_sans_nom_18);}</style><linearGradient id="Dégradé_sans_nom_22" x1="23.84" y1="717.18" x2="2082.04" y2="717.18" gradientUnits="userSpaceOnUse"><stop offset="0" stop-color="#0b7fad"/><stop offset="0" stop-color="#0b7fad"/><stop offset="0.56" stop-color="#1e506c"/><stop offset="0.82" stop-color="#253e52"/><stop offset="0.87" stop-color="#274257"/><stop offset="0.92" stop-color="#2c4d64"/><stop offset="0.98" stop-color="#355f7b"/><stop offset="1" stop-color="#386684"/></linearGradient><linearGradient id="Dégradé_sans_nom_17" x1="1034.62" y1="535.2" x2="2770.9" y2="535.2" gradientUnits="userSpaceOnUse"><stop offset="0" stop-color="#e45226"/><stop offset="1" stop-color="#f29481"/></linearGradient><linearGradient id="Dégradé_sans_nom_18" x1="1799.89" y1="1139.83" x2="2770.9" y2="1139.83" gradientUnits="userSpaceOnUse"><stop offset="0" stop-color="#f29481"/><stop offset="0" stop-color="#f29481"/><stop offset="0.68" stop-color="#e86540"/><stop offset="1" stop-color="#e45226"/></linearGradient></defs><path class="cls-1" d="M1663.91,506.27l28.66,30.51a262.56,262.56,0,0,1,71.59,180.41c0,145.41-118.3,263.71-263.71,263.71h-895C460,980.9,341.72,862.59,341.72,717.18S460,453.47,605.43,453.47h431.24s83.42-214.29,342.06-317.87H605.43c-155.35,0-301.4,60.49-411.24,170.34S23.84,561.84,23.84,717.19s60.5,301.39,170.35,411.24,255.89,170.34,411.24,170.34h895c155.35,0,301.4-60.5,411.25-170.34S2082,872.53,2082,717.18a577.82,577.82,0,0,0-39.35-210.91Z" transform="translate(-23.84 -135.6)"/><path class="cls-2" d="M1616.21,453.47h895.45a584,584,0,0,1,259.24-257,579.14,579.14,0,0,0-259.67-60.88h-895c-155.35,0-301.4,60.49-411.25,170.34s-170.34,255.9-170.34,411.25a577.51,577.51,0,0,0,42,217.6h382.43l-35-37.2a262.56,262.56,0,0,1-71.59-180.41C1352.5,571.77,1470.8,453.47,1616.21,453.47Z" transform="translate(-23.84 -135.6)"/><path class="cls-3" d="M2511.66,980.89H2106.12l-6.31,10.54c-19.7,43.24-105.36,208.91-299.92,307.33h711.34a579.14,579.14,0,0,0,259.67-60.88A584,584,0,0,1,2511.66,980.89Z" transform="translate(-23.84 -135.6)"/></svg>